<?xml version="1.0" encoding="UTF-8"?>
<svg width="626" height="556" viewBox="0 0 626 556" xmlns="http://www.w3.org/2000/svg" role="img" aria-labelledby="title desc">
  <title id="title">Snowflake (black)</title>
  <desc id="desc">Vectorized snowflake with transparent background and black fill</desc>
  <path d="M 309 70 L 301 74 L 296 79 L 293 84 L 291 92 L 291 97 L 293 104 L 296 109 L 308 121 L 308 128 L 307 129 L 296 119 L 285 131 L 285 133 L 308 153 L 308 163 L 307 164 L 269 130 L 257 143 L 308 188 L 308 198 L 307 199 L 244 142 L 236 136 L 228 144 L 219 148 L 252 222 L 257 234 L 256 235 L 248 233 L 246 231 L 219 170 L 207 175 L 203 178 L 224 223 L 223 225 L 213 221 L 201 193 L 185 199 L 187 206 L 190 211 L 189 214 L 183 212 L 180 209 L 176 199 L 169 191 L 160 187 L 145 188 L 138 192 L 134 196 L 131 201 L 129 208 L 130 220 L 136 230 L 140 233 L 150 237 L 158 237 L 164 235 L 176 228 L 183 230 L 184 231 L 183 233 L 172 239 L 180 254 L 208 238 L 218 242 L 173 268 L 182 283 L 241 249 L 251 252 L 250 254 L 169 300 L 174 309 L 175 320 L 218 316 L 219 315 L 228 315 L 229 314 L 238 314 L 239 313 L 248 313 L 258 311 L 267 311 L 268 310 L 271 311 L 264 320 L 217 324 L 207 326 L 197 326 L 199 344 L 200 343 L 219 342 L 220 341 L 248 339 L 249 338 L 250 339 L 244 348 L 213 351 L 214 367 L 215 368 L 220 368 L 221 367 L 229 367 L 230 368 L 224 375 L 208 377 L 202 380 L 195 387 L 192 394 L 192 399 L 191 400 L 192 401 L 192 407 L 195 414 L 200 420 L 209 425 L 215 425 L 216 426 L 224 425 L 231 422 L 238 415 L 241 408 L 242 399 L 239 384 L 244 378 L 246 380 L 248 392 L 265 389 L 260 363 L 258 358 L 264 350 L 266 351 L 276 400 L 293 396 L 286 360 L 282 346 L 281 337 L 279 332 L 280 328 L 285 322 L 287 323 L 288 332 L 290 337 L 291 346 L 295 360 L 297 374 L 299 379 L 306 414 L 315 412 L 328 414 L 329 405 L 338 368 L 347 323 L 349 322 L 355 330 L 340 396 L 357 400 L 363 375 L 363 371 L 365 366 L 366 357 L 369 350 L 375 358 L 369 389 L 381 392 L 386 392 L 388 379 L 390 378 L 395 385 L 392 403 L 394 411 L 397 416 L 402 421 L 410 425 L 424 425 L 431 422 L 439 414 L 443 403 L 441 391 L 437 384 L 431 379 L 423 376 L 411 375 L 404 368 L 405 367 L 419 368 L 421 351 L 390 348 L 384 340 L 385 339 L 392 339 L 393 340 L 403 340 L 404 341 L 435 344 L 437 327 L 369 320 L 363 311 L 364 310 L 365 311 L 374 311 L 384 313 L 394 313 L 404 315 L 413 315 L 414 316 L 458 320 L 458 311 L 464 300 L 387 256 L 383 252 L 393 249 L 452 283 L 460 268 L 416 242 L 418 240 L 426 238 L 453 254 L 462 239 L 451 233 L 449 231 L 450 230 L 458 228 L 474 236 L 489 235 L 496 231 L 503 221 L 505 214 L 504 204 L 500 196 L 492 189 L 483 186 L 476 186 L 469 188 L 464 191 L 458 198 L 452 211 L 444 214 L 443 213 L 449 200 L 435 193 L 433 193 L 421 221 L 411 225 L 410 223 L 431 177 L 415 170 L 388 231 L 386 233 L 378 235 L 377 233 L 415 148 L 405 144 L 397 136 L 330 196 L 326 198 L 325 197 L 325 189 L 370 149 L 376 142 L 365 130 L 327 164 L 325 162 L 325 154 L 349 133 L 346 128 L 338 120 L 334 122 L 327 129 L 325 128 L 325 121 L 337 109 L 341 102 L 342 91 L 340 84 L 337 79 L 329 72 L 318 69 Z M 412 392 L 420 393 L 425 397 L 425 403 L 422 407 L 414 408 L 410 404 L 410 396 Z M 222 392 L 224 396 L 224 404 L 220 408 L 217 409 L 213 408 L 209 403 L 210 396 L 215 393 Z M 305 295 L 310 297 L 323 297 L 329 295 L 334 301 L 324 351 L 317 378 L 315 375 L 304 320 L 300 306 L 300 301 Z M 343 285 L 346 281 L 350 271 L 350 263 L 357 260 L 360 260 L 418 294 L 425 297 L 426 299 L 424 300 L 415 298 L 406 298 L 396 296 L 349 292 Z M 290 284 L 289 287 L 284 292 L 256 294 L 255 295 L 227 297 L 226 298 L 217 298 L 216 299 L 209 299 L 208 298 L 273 260 L 277 260 L 283 263 L 284 272 L 286 278 Z M 313 248 L 321 248 L 329 253 L 333 260 L 333 268 L 331 272 L 325 278 L 321 280 L 313 280 L 307 277 L 301 269 L 301 259 L 303 255 L 307 251 Z M 146 210 L 150 205 L 157 204 L 161 208 L 164 215 L 155 220 L 152 220 L 147 216 Z M 478 203 L 483 204 L 487 208 L 487 214 L 482 219 L 478 219 L 470 214 L 473 207 Z M 385 170 L 386 172 L 355 241 L 352 244 L 346 246 L 336 236 L 325 230 L 325 224 Z M 249 170 L 308 223 L 308 231 L 295 238 L 288 246 L 284 244 L 281 244 L 279 242 L 279 240 L 274 231 L 267 213 L 248 172 Z M 316 86 L 320 87 L 325 93 L 324 97 L 317 104 L 309 97 L 309 91 L 313 87 Z" fill="#000000" fill-rule="evenodd" stroke="none"/>
</svg>
